# xmcd
#
# Track frame offsets: 
#        150
#        13427
#        28065
#        41705
#        53727
#        67162
#        79587
#        90087
#        105522
#        117715
#        130640
#        143872
#        161947
#
# Disc length: 2318 seconds
#
# Revision: 1
# Processed by: cddbd v1.5.2PL0 Copyright (c) Steve Scherf et al.
# Submitted via: ExactAudioCopyFreeDBPlugin 1.0
#
DISCID=b2090c0d
DTITLE=Don Williams - Love Songs
DYEAR=2005
DGENRE=Country
TTITLE0=The Shelter of Your Eyes
TTITLE1=My Womans Love
TTITLE2=We Should Be Together
TTITLE3=You're Sweet Love
TTITLE4=I Wouldn't Want To Live If You Didn't Love Me
TTITLE5=You're My Best Friend
TTITLE6=Turn Out The Lights And Love Me Tonight
TTITLE7=Till The Rivers All Run Dry
TTITLE8=Falling In Love Again
TTITLE9=Lay Down Beside Me
TTITLE10=Love Me Over Again
TTITLE11=I Believe in You
TTITLE12=Nobody But You
EXTD=
EXTT0=
EXTT1=
EXTT2=
EXTT3=
EXTT4=
EXTT5=
EXTT6=
EXTT7=
EXTT8=
EXTT9=
EXTT10=
EXTT11=
EXTT12=
PLAYORDER=
